<svg width="119" height="20" viewBox="0 0 119 20" fill="none" xmlns="http://www.w3.org/2000/svg">
<path d="M35.6658 2.97226C35.6932 3.00003 35.6932 3.00003 35.7205 3.00003C35.6932 3.00003 35.6932 2.97226 35.6658 2.97226ZM37.1161 13.2223C36.0763 15.1667 34.5986 16.6389 32.9294 17.3334C32.1906 17.6945 31.4244 17.8611 30.6856 17.8611C30.0562 17.8611 29.4268 17.7223 28.8522 17.4723C28.688 17.3889 28.4965 17.2778 28.2775 17.1667L28.1681 17.0556C25.5138 15.25 24.9665 10.6389 26.9914 6.83337C28.0039 4.88892 29.4816 3.4167 31.1781 2.69448C31.9443 2.33337 32.6831 2.1667 33.422 2.1667C34.0787 2.1667 34.7081 2.30559 35.2553 2.55559L35.6932 2.80559C35.7205 2.80559 35.7479 2.83337 35.7479 2.83337L35.83 2.86115L35.9394 2.97226C37.4992 4.02781 38.3748 6.08337 38.3475 8.50003L39.9619 8.52781C39.5788 5.97226 38.1833 3.75003 36.1584 2.4167L36.131 2.38892C36.1036 2.38892 36.1036 2.36115 36.0763 2.36115L36.0215 2.33337C34.8175 1.55559 33.4493 1.1667 32.0538 1.1667C27.6208 1.1667 24.0361 5.13892 24.0361 10.0278C24.0361 12.8889 25.2675 15.5556 27.3745 17.1945C27.5661 17.3611 27.6755 17.4445 27.8124 17.5278C27.9492 17.6389 28.0586 17.6945 28.1681 17.7778C28.3323 17.8611 28.4965 17.9723 28.6606 18.0278C29.7278 18.5834 30.8771 18.8611 32.0538 18.8611C35.83 18.8611 39.1137 15.9445 39.9072 11.8889L37.6634 11.9445C37.4992 12.3889 37.3076 12.8334 37.1161 13.2223Z" fill="white"/>
<path d="M43.1979 18.8889V1.13892H41.5014V18.8889H43.1979Z" fill="white"/>
<path d="M52.352 9.94448C55.4441 9.75004 57.7427 7.6667 57.7427 5.38892C57.7427 2.38892 54.2675 1.13892 51.0112 1.13892C47.7002 1.13892 46.7424 1.13892 46.7424 1.13892H45.4563V18.8334H47.2623V10.0278C51.2575 10.0278 55.7451 10.1389 55.7451 18.75V18.8334H57.7427V18.8056C57.7427 14.1945 56.1009 11.1111 52.352 9.94448ZM47.2623 9.44448V1.75003H51.9963C53.5013 1.80559 54.8969 2.50003 55.4441 3.83337C56.2651 5.77781 55.1431 8.08337 52.954 9.05559C52.3794 9.30559 51.75 9.4167 51.1754 9.44448H47.2623Z" fill="white"/>
<path d="M70.4586 2.97226C70.486 3.00003 70.486 3.00003 70.5133 3.00003C70.486 3.00003 70.486 2.97226 70.4586 2.97226ZM71.9089 13.2223C70.8691 15.1667 69.3914 16.6389 67.7222 17.3334C66.9834 17.6945 66.2172 17.8611 65.4784 17.8611C64.849 17.8611 64.2196 17.7223 63.645 17.4723C63.4808 17.3889 63.2893 17.2778 63.0703 17.1667L62.9609 17.0556C60.3066 15.25 59.7593 10.6389 61.7842 6.83337C62.7967 4.88892 64.2744 3.4167 65.9709 2.69448C66.7371 2.33337 67.4759 2.1667 68.2148 2.1667C68.8715 2.1667 69.5009 2.30559 70.0481 2.55559L70.486 2.80559C70.5133 2.80559 70.5407 2.83337 70.5407 2.83337L70.6228 2.86115L70.7322 2.97226C72.292 4.02781 73.1676 6.08337 73.1403 8.50003L74.7547 8.52781C74.3716 5.97226 72.9761 3.75003 70.9512 2.4167L70.9238 2.38892C70.8964 2.38892 70.8964 2.36115 70.8691 2.36115L70.8143 2.33337C69.6103 1.55559 68.2421 1.1667 66.8466 1.1667C62.4136 1.1667 58.8289 5.13892 58.8289 10.0278C58.8289 12.8889 60.0603 15.5556 62.1673 17.1945C62.3589 17.3611 62.4683 17.4445 62.6052 17.5278C62.742 17.6389 62.8514 17.6945 62.9609 17.7778C63.1251 17.8611 63.2893 17.9723 63.4534 18.0278C64.5206 18.5834 65.6699 18.8611 66.8466 18.8611C70.6228 18.8611 73.9065 15.9445 74.7 11.8889L72.4562 11.9445C72.292 12.3889 72.1004 12.8334 71.9089 13.2223Z" fill="white"/>
<path d="M88.7995 1.80559V1.1667H76.2942V18.8611H88.7995V18.1945H77.9634V10.3889H87.7597V9.6667H77.9634V1.80559H88.7995Z" fill="white"/>
<path d="M102.779 1.11115L96.8686 10.8334V10.8611L96.8413 10.8334L90.958 1.11115H88.7689L95.6099 11.4445V18.8611H97.3065V11.4445L104.147 1.11115H102.779Z" fill="white"/>
<path d="M111.257 1.13892H108.876L101.679 18.8611H103.184L105.565 12.4445H113.692L116.073 18.8611H118.481L111.257 1.13892ZM105.838 11.7223L109.642 1.52781L113.418 11.7223H105.838Z" fill="white"/>
<path d="M12.5754 13.2825C13.9977 14.7048 13.9977 17.0109 12.5754 18.4332C11.153 19.8556 8.84696 19.8556 7.42462 18.4332C6.00228 17.0109 6.00228 14.7048 7.42462 13.2825C8.84696 11.8601 11.153 11.8601 12.5754 13.2825ZM12.5754 1.56676C13.9977 2.9891 13.9977 5.29517 12.5754 6.71752C11.153 8.13986 8.84696 8.13985 7.42462 6.71751C6.00228 5.29517 6.00228 2.9891 7.42462 1.56676C8.84696 0.144415 11.153 0.144415 12.5754 1.56676ZM13.2825 7.42462C14.7048 6.00228 17.0109 6.00228 18.4332 7.42462C19.8556 8.84696 19.8556 11.153 18.4332 12.5754C17.0109 13.9977 14.7048 13.9977 13.2825 12.5754C11.8601 11.153 11.8601 8.84696 13.2825 7.42462ZM6.71752 7.42462C8.13986 8.84696 8.13986 11.153 6.71752 12.5754C5.29518 13.9977 2.9891 13.9977 1.56676 12.5754C0.144415 11.153 0.144415 8.84696 1.56676 7.42462C2.9891 6.00228 5.29518 6.00228 6.71752 7.42462Z" stroke="white"/>
</svg>
